HIERARCHY
ROOT Hips
{
 OFFSET 0.000000 0.000000 0.000000
 CHANNELS 6 Xposition Yposition Zposition Yrotation Xrotation Zrotation
 JOINT Chest
 {
  OFFSET 0.000000 9.585900 0.002600
  CHANNELS 3 Yrotation Xrotation Zrotation
  JOINT Chest2
  {
   OFFSET 0.000000 9.601200 -0.005300
   CHANNELS 3 Yrotation Xrotation Zrotation
   JOINT Chest3
   {
    OFFSET 0.000000 9.561800 0.000000
    CHANNELS 3 Yrotation Xrotation Zrotation
    JOINT Chest4
    {
     OFFSET 0.000000 9.552100 0.000000
     CHANNELS 3 Yrotation Xrotation Zrotation
     JOINT Neck
     {
      OFFSET 0.000000 14.453000 0.000000
      CHANNELS 3 Yrotation Xrotation Zrotation
      JOINT Head
      {
       OFFSET 0.000000 8.936500 -0.011300
       CHANNELS 3 Yrotation Xrotation Zrotation
       End Site
       {
        OFFSET 0.000000 17.073600 -0.006000
       }
      }
     }
     JOINT RightCollar
     {
      OFFSET -2.921100 9.558500 0.000000
      CHANNELS 3 Yrotation Xrotation Zrotation
      JOINT RightShoulder
      {
       OFFSET -13.519700 0.000000 0.000000
       CHANNELS 3 Yrotation Xrotation Zrotation
       JOINT RightElbow
       {
        OFFSET 0.000000 -29.696600 0.000000
        CHANNELS 3 Yrotation Xrotation Zrotation
        JOINT RightWrist
        {
         OFFSET 0.000000 -24.004700 0.000000
         CHANNELS 3 Yrotation Xrotation Zrotation
         End Site
         {
          OFFSET 0.000000 -17.728500 0.000000
         }
        }
       }
      }
     }
     JOINT LeftCollar
     {
      OFFSET 2.921100 9.558500 0.000000
      CHANNELS 3 Yrotation Xrotation Zrotation
      JOINT LeftShoulder
      {
       OFFSET 13.519700 0.000000 0.000000
       CHANNELS 3 Yrotation Xrotation Zrotation
       JOINT LeftElbow
       {
        OFFSET 0.000000 -29.696600 0.000000
        CHANNELS 3 Yrotation Xrotation Zrotation
        JOINT LeftWrist
        {
         OFFSET 0.000000 -24.004700 0.000000
         CHANNELS 3 Yrotation Xrotation Zrotation
         End Site
         {
          OFFSET 0.000000 -17.728500 0.000000
         }
        }
       }
      }
     }
    }
   }
  }
 }
 JOINT RightHip
 {
  OFFSET -7.771700 -0.012900 -0.001300
  CHANNELS 3 Yrotation Xrotation Zrotation
  JOINT RightKnee
  {
   OFFSET 0.000000 -40.869800 0.001200
   CHANNELS 3 Yrotation Xrotation Zrotation
   JOINT RightAnkle
   {
    OFFSET 0.000000 -39.717900 0.002100
    CHANNELS 3 Yrotation Xrotation Zrotation
    JOINT RightToe
    {
     OFFSET 0.000000 -4.965400 11.033500
     CHANNELS 3 Yrotation Xrotation Zrotation
     End Site
     {
      OFFSET 0.000000 -1.423100 5.872300
     }
    }
   }
  }
 }
 JOINT LeftHip
 {
  OFFSET 7.771700 -0.012900 -0.001300
  CHANNELS 3 Yrotation Xrotation Zrotation
  JOINT LeftKnee
  {
   OFFSET 0.000000 -40.869800 0.001200
   CHANNELS 3 Yrotation Xrotation Zrotation
   JOINT LeftAnkle
   {
    OFFSET 0.000000 -39.717900 0.002100
    CHANNELS 3 Yrotation Xrotation Zrotation
    JOINT LeftToe
    {
     OFFSET 0.000000 -4.965400 11.033500
     CHANNELS 3 Yrotation Xrotation Zrotation
     End Site
     {
      OFFSET 0.000000 -1.423100 5.872300
     }
    }
   }
  }
 }
}
MOTION
Frames: 8
Frame Time: 0.008333
-50.271484 54.669118 45.800998 -179.406338 -30.432128 -10.394468 -0.348230 12.593206 4.990450 -0.163631 7.367997 2.084799 -0.119279 9.185299 2.655898 -0.121700 7.346632 2.129176 6.541257 21.284258 -0.805882 7.344983 -2.796731 -2.373340 3.301142 3.879316 -2.374647 -19.613532 -13.129974 3.123818 -34.114025 -39.801833 36.324622 5.572704 -7.544212 -4.646255 -8.539863 3.544427 -3.538596 8.288316 -4.483656 -1.897143 -19.715011 -75.184794 27.192063 14.545696 -10.764327 -5.951091 -18.649299 -37.018486 5.293168 4.110519 85.775850 -0.784768 -0.513639 -15.233921 3.219766 -0.063116 0.492880 -0.016271 -14.246654 -47.622999 15.247538 173.414358 79.398180 168.310831 -1.662987 -17.092247 2.527832 -0.319180 -1.759403 -0.135502
-50.275477 54.685163 45.799412 -179.397892 -30.443480 -10.385633 -0.339188 12.594383 5.001057 -0.159321 7.361025 2.095327 -0.132381 9.191614 2.645691 -0.101762 7.343638 2.148192 6.513304 21.286582 -0.825204 7.312013 -2.782480 -2.384841 3.358750 3.976492 -2.313557 -19.629489 -13.370775 3.134438 -34.371530 -39.416845 36.252277 5.545137 -7.454193 -4.863565 -8.538464 3.544543 -3.550324 8.254300 -4.495721 -2.011067 -19.045117 -75.122074 26.710997 14.563101 -10.832318 -5.849008 -18.650228 -37.010635 5.271812 4.027527 85.780798 -0.876470 -0.508637 -15.241116 3.222084 -0.059451 0.494975 -0.015500 -14.234011 -47.606852 15.232095 173.465734 79.408368 168.351496 -1.665695 -17.098276 2.535961 -0.317885 -1.751370 -0.134733
-50.279327 54.700757 45.797624 -179.386973 -30.451856 -10.376040 -0.341587 12.599305 4.996878 -0.147192 7.355764 2.111674 -0.098105 9.183640 2.684995 -0.133794 7.351874 2.127922 6.485958 21.290163 -0.844336 7.277942 -2.774293 -2.395993 3.411512 4.063092 -2.259978 -19.642606 -13.572036 3.149238 -34.591582 -39.121844 36.185908 5.521210 -7.359472 -5.087587 -8.561837 3.543574 -3.573249 8.257262 -4.488016 -2.101401 -18.311316 -75.102091 26.153809 14.594016 -10.910079 -5.735746 -18.647052 -37.006257 5.246003 4.040547 85.786739 -0.868844 -0.509099 -15.248252 3.226261 -0.066464 0.492482 -0.020089 -14.226641 -47.591283 15.224988 173.546954 79.420251 168.411933 -1.671492 -17.105868 2.551649 -0.316222 -1.740690 -0.135591
-50.284048 54.714185 45.798039 -179.372330 -30.441179 -10.360035 -0.351369 12.585736 4.984408 -0.133673 7.351463 2.128072 -0.100784 9.189471 2.691237 -0.131684 7.352865 2.134439 6.460033 21.290720 -0.862092 7.243470 -2.770056 -2.411456 3.459863 4.140479 -2.215686 -19.647222 -13.734697 3.173443 -34.756866 -38.937468 36.109254 5.521791 -7.268678 -5.292876 -8.545461 3.547952 -3.580028 8.243985 -4.462734 -2.192329 -17.449586 -75.138593 25.440216 14.629655 -10.977363 -5.605227 -18.647436 -37.025306 5.217883 4.049988 85.795681 -0.865098 -0.509384 -15.254948 3.231836 -0.064893 0.492770 -0.020436 -14.221159 -47.595743 15.206447 173.592261 79.430383 168.447366 -1.700944 -17.135001 2.553935 -0.290280 -1.708538 -0.125278
-50.286088 54.728238 45.797004 -179.368710 -30.442929 -10.352057 -0.344094 12.581187 4.992129 -0.131603 7.353147 2.134751 -0.096039 9.195759 2.698607 -0.129510 7.353821 2.140441 6.430404 21.289599 -0.881042 7.211264 -2.773313 -2.431668 3.499718 4.210165 -2.180112 -19.636007 -13.859340 3.210556 -34.853946 -38.873159 36.017522 5.562958 -7.198340 -5.463166 -8.500333 3.602076 -3.566389 8.225139 -4.466277 -2.296034 -16.442955 -75.227818 24.544980 14.664529 -11.031078 -5.455102 -18.638235 -37.027003 5.201101 4.057200 85.799040 -0.859434 -0.506818 -15.263272 3.228585 -0.068229 0.495598 -0.014085 -14.209824 -47.588955 15.202860 173.637685 79.439982 168.483431 -1.712891 -17.143478 2.562482 -0.283950 -1.697503 -0.122911
-50.288241 54.741201 45.796370 -179.354494 -30.439967 -10.346099 -0.342065 12.579439 4.999700 -0.129933 7.353884 2.140517 -0.102351 9.197806 2.697363 -0.127499 7.354392 2.144709 6.414928 21.287648 -0.895369 7.173609 -2.783994 -2.452648 3.534341 4.277998 -2.149383 -19.613548 -13.944363 3.263879 -34.895428 -38.954872 35.913097 5.644777 -7.132288 -5.568441 -8.470487 3.661123 -3.557625 8.252661 -4.457918 -2.381120 -15.296267 -75.356574 23.473682 14.698067 -11.073510 -5.287890 -18.635988 -37.034297 5.183575 4.063802 85.808163 -0.855849 -0.510156 -15.267874 3.232663 -0.063764 0.490199 -0.016574 -14.206326 -47.592766 15.191091 173.641897 79.443799 168.481611 -1.718283 -17.137465 2.570173 -0.284615 -1.699361 -0.124806
-50.288424 54.753358 45.796396 -179.351418 -30.435615 -10.344053 -0.334861 12.579468 5.012526 -0.126652 7.354511 2.146185 -0.115111 9.193406 2.685571 -0.126686 7.354583 2.146113 6.409018 21.285677 -0.902742 7.142771 -2.799357 -2.472990 3.569440 4.349312 -2.118928 -19.585293 -13.990534 3.329443 -34.891589 -39.176187 35.819054 5.758191 -7.068982 -5.614428 -8.455875 3.688605 -3.553275 8.332409 -4.398795 -2.438992 -14.040738 -75.510241 22.264690 14.732359 -11.112220 -5.116470 -18.630818 -37.041923 5.176107 4.028324 85.812443 -0.887698 -0.508362 -15.271312 3.233276 -0.063124 0.488577 -0.017743 -14.205725 -47.601668 15.199629 173.617751 79.438875 168.447605 -1.723297 -17.122536 2.583033 -0.295624 -1.713671 -0.130402
-50.285457 54.766307 45.794910 -179.362251 -30.446455 -10.352217 -0.294964 12.599290 5.052161 -0.107324 7.358272 2.157795 -0.133319 9.183539 2.679890 -0.120519 7.354820 2.150982 6.368935 21.275161 -0.922699 7.116437 -2.813547 -2.487011 3.555051 4.412095 -2.107480 -19.547574 -14.004016 3.399572 -34.851399 -39.499735 35.766482 5.889467 -7.026261 -5.633286 -8.472688 3.707051 -3.558310 8.427153 -4.324659 -2.485963 -12.795516 -75.671612 21.047611 14.774436 -11.164161 -4.954860 -18.619017 -37.029497 5.187031 3.942342 85.813897 -0.968869 -0.506490 -15.271464 3.234930 -0.063141 0.485361 -0.020393 -14.206363 -47.592023 15.222358 173.595788 79.435531 168.421812 -1.698953 -17.099913 2.578478 -0.324724 -1.738203 -0.133794
